# xmcd
#
# Track frame offsets: 
#        150
#        19365
#        36548
#        49681
#        64201
#        75506
#        105386
#        123076
#        147887
#        162322
#        185472
#        206303
#        227762
#        245230
#        262614
#        275981
#
# Disc length: 3994 seconds
#
# Revision: 0
# Processed by: cddbd v1.5.1PL0 Copyright (c) Steve Scherf et al.
# Submitted via: ExactAudioCopy v0.95a5
#
DISCID=e00f9810
DTITLE=Belle and Sebastian - Live At The Bowlie Weekender
DYEAR=1999
DGENRE=Goa
TTITLE0=Slow Graffiti
TTITLE1=Seeing Other People
TTITLE2=Dog On Wheels
TTITLE3=The Wrong Girl
TTITLE4=Winter Wooskie
TTITLE5=If You're Feeling Sinister
TTITLE6=I Don't Love Anyone
TTITLE7=The Boy With The Arab Strap
TTITLE8=Photo Jenny
TTITLE9=Lazy Line Painter Jane
TTITLE10=The Boy Done Wrong Again
TTITLE11=Century Of Fakers
TTITLE12=I Know Where The Summer Goes
TTITLE13=Dirty Dream #2
TTITLE14=Poupee De Cire, Poupee De Son
TTITLE15=Sleep The Clock Around
EXTD=
EXTT0=
EXTT1=
EXTT2=
EXTT3=
EXTT4=
EXTT5=
EXTT6=
EXTT7=
EXTT8=
EXTT9=
EXTT10=
EXTT11=
EXTT12=
EXTT13=
EXTT14=
EXTT15=
PLAYORDER=
